HIERARCHY
ROOT Hips
{
	OFFSET 0.000000 89.005402 0.000000
	CHANNELS 6 Xposition Yposition Zposition Xrotation Yrotation Zrotation
	JOINT Spine
	{
		OFFSET 0.116900 10.681000 0.373400
		CHANNELS 3 Xrotation Yrotation Zrotation
		JOINT Spine1
		{
			OFFSET 0.000000 13.840401 0.053500
			CHANNELS 3 Xrotation Yrotation Zrotation
			JOINT Spine2
			{
				OFFSET 0.000000 14.712700 -0.366200
				CHANNELS 3 Xrotation Yrotation Zrotation
				JOINT Neck
				{
					OFFSET 0.000000 35.415497 -3.314200
					CHANNELS 3 Xrotation Yrotation Zrotation
					JOINT Head
					{
						OFFSET 0.000000 16.899200 1.218300
						CHANNELS 3 Xrotation Yrotation Zrotation
						JOINT HeadTop_End
						{
							OFFSET 0.000000 22.206207 2.192500
							CHANNELS 3 Xrotation Yrotation Zrotation
							End Site
							{
								OFFSET 0.000000 22.314178 0.000000
							}
						}
					}
				}
				JOINT LeftShoulder
				{
					OFFSET 12.896400 26.716293 -4.548400
					CHANNELS 3 Xrotation Yrotation Zrotation
					JOINT LeftArm
					{
						OFFSET 19.027000 -4.857010 -1.718400
						CHANNELS 3 Xrotation Yrotation Zrotation
						JOINT LeftForeArm
						{
							OFFSET 24.179897 0.000000 0.000000
							CHANNELS 3 Xrotation Yrotation Zrotation
							JOINT LeftHand
							{
								OFFSET 27.156403 0.000000 0.000000
								CHANNELS 3 Xrotation Yrotation Zrotation
								JOINT LeftHandIndex1
								{
									OFFSET 16.441200 0.000000 0.000000
									CHANNELS 3 Xrotation Yrotation Zrotation
									JOINT LeftHandIndex2
									{
										OFFSET 4.821899 0.000000 0.000000
										CHANNELS 3 Xrotation Yrotation Zrotation
										JOINT LeftHandIndex3
										{
											OFFSET 6.386497 0.000000 0.000000
											CHANNELS 3 Xrotation Yrotation Zrotation
											JOINT LeftHandIndex4
											{
												OFFSET 5.188988 0.000000 0.000000
												CHANNELS 3 Xrotation Yrotation Zrotation
												End Site
												{
													OFFSET -0.178703 5.185913 0.000177
												}
											}
										}
									}
								}
								JOINT LeftHandThumb1
								{
									OFFSET 6.534897 -5.032593 5.900300
									CHANNELS 3 Xrotation Yrotation Zrotation
									JOINT LeftHandThumb2
									{
										OFFSET 3.818176 -2.204422 2.204423
										CHANNELS 3 Xrotation Yrotation Zrotation
										JOINT LeftHandThumb3
										{
											OFFSET 3.252098 -1.877594 1.877601
											CHANNELS 3 Xrotation Yrotation Zrotation
											JOINT LeftHandThumb4
											{
												OFFSET 5.251778 -3.032120 3.032117
												CHANNELS 3 Xrotation Yrotation Zrotation
												End Site
												{
													OFFSET 0.000023 6.780014 0.000000
												}
											}
										}
									}
								}
							}
						}
					}
				}
				JOINT RightShoulder
				{
					OFFSET -12.896300 26.716293 -4.548400
					CHANNELS 3 Xrotation Yrotation Zrotation
					JOINT RightArm
					{
						OFFSET -19.027000 -4.857010 -1.718400
						CHANNELS 3 Xrotation Yrotation Zrotation
						JOINT RightForeArm
						{
							OFFSET -24.179897 0.000000 0.000000
							CHANNELS 3 Xrotation Yrotation Zrotation
							JOINT RightHand
							{
								OFFSET -27.156403 0.000000 0.000000
								CHANNELS 3 Xrotation Yrotation Zrotation
								JOINT RightHandThumb1
								{
									OFFSET -6.591202 -4.852203 5.988100
									CHANNELS 3 Xrotation Yrotation Zrotation
									JOINT RightHandThumb2
									{
										OFFSET -3.818176 -2.204422 2.204423
										CHANNELS 3 Xrotation Yrotation Zrotation
										JOINT RightHandThumb3
										{
											OFFSET -3.252098 -1.877594 1.877601
											CHANNELS 3 Xrotation Yrotation Zrotation
											JOINT RightHandThumb4
											{
												OFFSET -5.251778 -3.032120 3.032117
												CHANNELS 3 Xrotation Yrotation Zrotation
												End Site
												{
													OFFSET -0.000023 6.780014 0.000000
												}
											}
										}
									}
								}
								JOINT RightHandIndex1
								{
									OFFSET -16.029404 0.000000 0.000000
									CHANNELS 3 Xrotation Yrotation Zrotation
									JOINT RightHandIndex2
									{
										OFFSET -5.213303 0.000000 0.000000
										CHANNELS 3 Xrotation Yrotation Zrotation
										JOINT RightHandIndex3
										{
											OFFSET -6.386528 0.000000 0.000000
											CHANNELS 3 Xrotation Yrotation Zrotation
											JOINT RightHandIndex4
											{
												OFFSET -5.189026 0.000000 0.000000
												CHANNELS 3 Xrotation Yrotation Zrotation
												End Site
												{
													OFFSET 0.236702 5.183624 0.001972
												}
											}
										}
									}
								}
							}
						}
					}
				}
			}
		}
	}
	JOINT LeftUpLeg
	{
		OFFSET 14.073000 -7.904099 -1.463000
		CHANNELS 3 Xrotation Yrotation Zrotation
		JOINT LeftLeg
		{
			OFFSET -0.109806 -34.073280 4.093200
			CHANNELS 3 Xrotation Yrotation Zrotation
			JOINT LeftFoot
			{
				OFFSET 0.109806 -29.899420 -6.319000
				CHANNELS 3 Xrotation Yrotation Zrotation
				JOINT LeftToeBase
				{
					OFFSET 1.551100 -14.988700 20.535801
					CHANNELS 3 Xrotation Yrotation Zrotation
					JOINT LeftToe_End
					{
						OFFSET 0.221200 0.570800 13.248301
						CHANNELS 3 Xrotation Yrotation Zrotation
						End Site
						{
							OFFSET 0.000000 13.262435 0.000000
						}
					}
				}
			}
		}
	}
	JOINT RightUpLeg
	{
		OFFSET -13.839300 -7.904099 -1.463000
		CHANNELS 3 Xrotation Yrotation Zrotation
		JOINT RightLeg
		{
			OFFSET 0.109694 -34.073219 4.093300
			CHANNELS 3 Xrotation Yrotation Zrotation
			JOINT RightFoot
			{
				OFFSET -0.109694 -29.899384 -6.319200
				CHANNELS 3 Xrotation Yrotation Zrotation
				JOINT RightToeBase
				{
					OFFSET -1.551100 -14.988700 20.535801
					CHANNELS 3 Xrotation Yrotation Zrotation
					JOINT RightToe_End
					{
						OFFSET -0.221200 0.570900 13.248299
						CHANNELS 3 Xrotation Yrotation Zrotation
						End Site
						{
							OFFSET 0.000000 13.262440 0.000000
						}
					}
				}
			}
		}
	}
}
MOTION
Frames: 9
Frame Time: 0.033333
0.489237 84.521965 -4.339229 -2.137410 2.505644 -1.140665 1.478795 1.058386 3.091920 3.066679 0.165918 -1.434940 3.070815 0.141864 -1.427937 9.861028 -1.170359 2.156568 2.352348 -6.428902 4.315924 -0.000000 0.000000 0.000000 1.250053 -1.671839 -4.345027 16.432549 -59.193944 -53.134948 -0.000027 -5.683817 0.000007 7.767882 -12.490364 0.353222 -0.431655 -5.637176 -4.569834 2.226345 5.073447 -47.363581 0.415690 2.360460 -19.972687 -0.000000 -0.000000 -0.000002 6.059147 22.409402 4.221718 1.207956 -0.209718 -1.050987 -4.562331 -5.456868 3.496195 -0.000001 -0.000000 0.000000 11.345538 30.042000 -5.238404 -32.934571 24.278264 39.913553 -0.000004 14.738821 0.000008 12.723109 12.262814 -34.694745 20.702035 -24.003127 21.425928 7.679288 0.974951 1.291218 -2.473069 2.046774 -2.660563 -0.000000 0.000001 -0.000001 1.646765 7.092976 -14.607625 2.919368 -5.665609 54.494347 0.983030 -3.569390 30.787098 0.000002 -0.000001 0.000002 -11.503172 7.388655 5.967226 29.015275 3.419109 2.168614 -14.832970 6.477690 -5.888693 -0.003934 -0.000002 0.000002 0.000000 -0.000000 0.000000 -9.234895 -14.601075 -3.785664 26.450652 2.410075 -1.636864 -14.883100 -6.339811 3.025714 -1.323992 -0.000002 -0.000002 -0.000000 -0.000000 -0.000000 
0.435612 84.522011 -4.277303 -2.070303 2.797089 -1.109938 1.523683 1.187237 3.213263 3.045801 0.187724 -1.484236 3.050642 0.162601 -1.476419 9.914341 -1.180281 2.099346 2.288113 -6.500184 4.406725 -0.000002 -0.000000 0.000000 1.248889 -1.663291 -4.381352 16.562565 -59.155059 -53.090097 0.000016 -5.701404 -0.000007 7.979353 -12.396648 0.377549 -0.438489 -6.889163 -3.983558 2.260727 5.104771 -47.751270 0.452920 2.460408 -20.857980 0.000000 0.000000 0.000002 5.994594 22.342625 4.288053 1.207954 -0.209721 -1.050986 -4.594565 -5.514794 3.502198 0.000003 -0.000002 -0.000000 11.327811 30.018152 -5.268353 -33.039954 24.608248 39.808982 -0.000003 13.446926 0.000011 12.668981 12.655617 -35.213556 20.404466 -24.310407 21.145846 8.128924 1.029741 1.255865 -2.353262 1.796644 -2.680101 -0.000000 0.000001 -0.000000 1.751785 7.302359 -15.078602 2.918477 -5.664975 54.485293 0.984627 -3.572057 30.812756 0.000000 0.000000 0.000002 -11.587567 7.358752 5.943645 28.977344 3.174922 2.216231 -14.787336 6.515349 -5.871356 -0.003934 -0.000002 0.000002 0.000000 0.000000 -0.000000 -9.179989 -14.789339 -3.782126 26.438680 2.338852 -1.684831 -14.998137 -6.293900 3.054652 -1.264783 -0.000007 -0.000001 -0.000000 0.000000 -0.000000 
0.387931 84.526054 -4.210977 -1.994769 3.032852 -1.073751 1.528144 1.293583 3.320546 3.047174 0.206135 -1.505832 3.052574 0.180176 -1.497283 9.975835 -1.175449 1.952578 2.195876 -6.536134 4.516126 -0.000001 -0.000000 0.000000 1.250667 -1.663376 -4.484476 16.713642 -59.098656 -53.011769 -0.000004 -5.721372 0.000017 8.168909 -12.297310 0.404751 -0.424096 -7.849338 -3.528062 2.267643 5.111020 -47.829021 0.468813 2.501669 -21.225083 -0.000001 0.000001 -0.000003 5.982285 22.301512 4.285925 1.207954 -0.209722 -1.050988 -4.618664 -5.558081 3.506582 -0.000001 -0.000002 0.000000 11.318609 30.020840 -5.327945 -33.163499 24.862225 39.723725 0.000005 12.331071 -0.000020 12.645535 13.069759 -35.638462 20.274706 -24.520581 20.968408 8.334397 1.053899 1.239380 -2.269586 1.618634 -2.697054 -0.000000 -0.000000 -0.000000 1.818489 7.430092 -15.374894 2.911456 -5.659986 54.413890 0.974264 -3.554622 30.645980 -0.000000 -0.000002 0.000002 -11.638558 7.272834 5.886138 28.907833 3.009157 2.273294 -14.735995 6.594120 -5.879802 -0.003934 -0.000002 0.000002 -0.000000 0.000000 0.000000 -9.148362 -14.902272 -3.787953 26.413911 2.242599 -1.758570 -15.088042 -6.126887 3.128352 -1.181085 0.000005 -0.000001 -0.000000 0.000000 -0.000000 
0.344196 84.529305 -4.140694 -1.910582 3.217750 -1.038026 1.490299 1.367122 3.397952 3.066591 0.219362 -1.495789 3.072333 0.192943 -1.486663 10.033796 -1.165246 1.737028 2.107008 -6.586379 4.675927 0.000000 0.000000 -0.000000 1.254450 -1.669491 -4.642006 16.880546 -59.022335 -52.906574 -0.000000 -5.743129 -0.000020 8.432030 -12.241557 0.461046 -0.402728 -8.423444 -3.223508 2.252009 5.096863 -47.653106 0.462955 2.486530 -21.090504 0.000000 -0.000000 -0.000000 5.994058 22.283023 4.257534 1.207953 -0.209718 -1.050986 -4.642769 -5.601150 3.510831 0.000003 0.000000 -0.000001 11.328747 30.072961 -5.420987 -33.253063 25.048336 39.616279 0.000001 11.432202 0.000003 12.548575 13.501587 -35.939878 20.270588 -24.646937 20.927573 8.414662 1.062996 1.232838 -2.206942 1.484148 -2.710979 0.000000 0.000001 -0.000001 1.843180 7.467816 -15.507762 2.900723 -5.652312 54.305147 0.957562 -3.526346 30.375583 0.000001 -0.000001 0.000001 -11.675522 7.155842 5.827818 28.834532 2.949042 2.319812 -14.693569 6.645812 -5.918768 -0.003934 -0.000002 0.000002 -0.000000 0.000000 0.000000 -9.143012 -14.954306 -3.800976 26.395063 2.161658 -1.831790 -15.168962 -5.906687 3.210035 -1.102817 0.000010 -0.000000 0.000000 -0.000000 0.000000 
0.303453 84.525185 -4.067025 -1.824712 3.361241 -1.010186 1.418262 1.402791 3.439121 3.096056 0.226372 -1.461417 3.101904 0.199885 -1.451922 10.078939 -1.159302 1.501668 2.050253 -6.682946 4.882656 0.000000 -0.000000 -0.000000 1.258659 -1.677102 -4.822203 17.045862 -58.930879 -52.794596 0.000005 -5.765771 0.000007 8.823363 -12.259848 0.557561 -0.382958 -8.587463 -3.055405 2.223510 5.070852 -47.331589 0.441768 2.430968 -20.596707 -0.000000 0.000001 0.000001 6.003434 22.286813 4.243902 1.207955 -0.209721 -1.050989 -4.674404 -5.657610 3.516284 0.000004 0.000001 0.000001 11.363289 30.180953 -5.538365 -33.280339 25.171870 39.469020 -0.000017 10.769250 0.000018 12.339758 13.930646 -36.110715 20.334807 -24.717616 21.010427 8.476326 1.070450 1.227912 -2.152154 1.366854 -2.722933 0.000000 -0.000003 0.000001 1.830058 7.421007 -15.511735 2.889181 -5.644053 54.187811 0.940278 -3.496768 30.093465 0.000001 -0.000001 0.000005 -11.720080 7.062187 5.805969 28.799254 2.932532 2.330436 -14.685346 6.651340 -5.958748 -0.003934 -0.000002 0.000002 -0.000000 0.000000 0.000000 -9.153593 -14.959342 -3.805346 26.406281 2.110776 -1.881605 -15.263029 -5.756368 3.263344 -1.058015 -0.000014 -0.000001 -0.000000 0.000000 -0.000000 
0.267290 84.511223 -3.990591 -1.743155 3.474460 -0.990024 1.327733 1.403673 3.449311 3.126828 0.227422 -1.419348 3.132592 0.201144 -1.409705 10.105878 -1.164344 1.306295 2.045012 -6.830383 5.102589 0.000001 0.000001 -0.000000 1.261971 -1.683037 -4.982073 17.184898 -58.841082 -52.700637 0.000000 -5.787629 0.000008 9.329803 -12.350498 0.689174 -0.365166 -8.388947 -2.982322 2.194035 5.043630 -46.997453 0.415617 2.360237 -19.970683 0.000001 0.000001 0.000002 5.994510 22.315362 4.271217 1.207955 -0.209722 -1.050989 -4.716947 -5.733662 3.523687 0.000001 0.000002 0.000001 11.418626 30.330234 -5.660473 -33.243559 25.239912 39.289663 0.000000 10.332683 -0.000002 12.042957 14.329933 -36.175130 20.415628 -24.762783 21.167105 8.575689 1.083006 1.220098 -2.099244 1.254031 -2.734042 0.000001 0.000000 -0.000001 1.789344 7.308372 -15.431352 2.879259 -5.636920 54.086847 0.926166 -3.472333 29.861440 0.000000 -0.000000 0.000001 -11.776428 6.996208 5.827517 28.817388 2.905241 2.288825 -14.720641 6.629100 -5.973484 -0.003934 0.000000 0.000002 0.000000 0.000000 -0.000000 -9.168625 -14.928919 -3.792847 26.460083 2.077870 -1.895884 -15.383152 -5.775042 3.271142 -1.058751 0.000000 -0.000001 -0.000000 -0.000000 0.000000 
0.239388 84.491119 -3.912591 -1.669499 3.570125 -0.968935 1.237028 1.381224 3.441963 3.151628 0.224157 -1.389431 3.157223 0.198182 -1.379811 10.115547 -1.182976 1.199689 2.096959 -7.011971 5.293596 0.000000 0.000000 0.000000 1.263853 -1.687433 -5.080363 17.276093 -58.781127 -52.642378 0.000006 -5.805625 -0.000007 9.874603 -12.481882 0.839186 -0.345311 -7.929803 -2.951989 2.174346 5.025244 -46.772913 0.394525 2.301429 -19.452225 0.000002 0.000000 0.000001 5.965967 22.371596 4.342934 1.207955 -0.209718 -1.050986 -4.767894 -5.824840 3.532534 -0.000000 0.000001 0.000001 11.482293 30.487625 -5.762421 -33.161098 25.263263 39.104964 -0.000000 10.089461 -0.000007 11.717867 14.677761 -36.181216 20.481087 -24.803545 21.335564 8.711893 1.100201 1.209343 -2.050628 1.150325 -2.744357 0.000001 -0.000001 0.000001 1.733910 7.157955 -15.307829 2.872449 -5.631992 54.017473 0.916281 -3.455115 29.697741 -0.000001 0.000000 -0.000003 -11.827781 6.911880 5.857713 28.863669 2.882419 2.214858 -14.781146 6.599075 -5.972319 -0.003934 -0.000002 0.000002 0.000000 0.000000 0.000000 -9.177210 -14.875020 -3.768940 26.546203 2.043801 -1.878522 -15.525672 -5.991769 3.240043 -1.105056 0.000002 0.000001 -0.000000 -0.000000 0.000000 
0.222970 84.470161 -3.834949 -1.608108 3.663603 -0.940041 1.161517 1.351506 3.431786 3.165783 0.219097 -1.387057 3.171237 0.193336 -1.377552 10.116366 -1.213671 1.202477 2.195948 -7.202110 5.428072 -0.000001 0.000000 -0.000000 1.264640 -1.693484 -5.090939 17.310206 -58.781687 -52.623015 0.000005 -5.815887 0.000011 10.349544 -12.608189 0.985973 -0.320487 -7.337771 -2.918672 2.171077 5.022200 -46.735484 0.385138 2.274705 -19.217053 -0.000001 0.000000 0.000002 5.929701 22.455662 4.440582 1.207952 -0.209718 -1.050988 -4.819399 -5.917259 3.541535 0.000001 -0.000001 -0.000003 11.536855 30.612320 -5.821366 -33.061445 25.254208 38.949389 0.000003 9.995099 -0.000004 11.426777 14.965206 -36.180943 20.522745 -24.846618 21.468123 8.847128 1.117116 1.198613 -2.014035 1.071604 -2.752779 0.000000 -0.000000 -0.000001 1.676165 7.001550 -15.170209 2.869026 -5.629532 53.982906 0.909615 -3.443420 29.587044 -0.000000 -0.000001 0.000001 -11.855696 6.772390 5.850701 28.906293 2.893614 2.156246 -14.842040 6.584588 -5.980606 -0.003934 -0.000002 0.000002 0.000000 0.000000 -0.000000 -9.169906 -14.819697 -3.746637 26.644209 2.008973 -1.842558 -15.679136 -6.362145 3.187146 -1.186015 -0.000015 -0.000000 -0.000000 -0.000000 -0.000000 
0.217554 84.457260 -3.759355 -1.562883 3.767278 -0.906468 1.109528 1.328367 3.429091 3.167566 0.214537 -1.417402 3.172999 0.188815 -1.408024 10.122982 -1.251012 1.301263 2.315065 -7.374578 5.503078 0.000001 -0.000000 0.000000 1.265204 -1.705270 -5.011428 17.291467 -58.862133 -52.633277 0.000010 -5.815885 0.000009 10.658967 -12.690465 1.110392 -0.291656 -6.737031 -2.855779 2.185094 5.035323 -46.895420 0.389277 2.286498 -19.320910 -0.000001 -0.000000 0.000000 5.904833 22.561660 4.531512 1.207956 -0.209720 -1.050987 -4.861438 -5.992809 3.548983 -0.000000 -0.000001 -0.000003 11.567153 30.671682 -5.824244 -32.973879 25.222289 38.852817 -0.000006 10.006999 -0.000000 11.210032 15.195416 -36.209063 20.550062 -24.886259 21.547406 8.937865 1.128377 1.191358 -1.996682 1.033329 -2.757802 0.000000 0.000001 -0.000000 1.625764 6.868413 -15.032997 2.868299 -5.629000 53.975129 0.904621 -3.434592 29.503583 0.000000 -0.000001 0.000001 -11.846546 6.594165 5.792110 28.910343 2.919322 2.144230 -14.879736 6.608842 -6.002389 -0.003934 -0.000002 0.000002 0.000000 -0.000000 -0.000000 -9.129585 -14.797890 -3.732824 26.708505 1.991374 -1.805622 -15.816353 -6.772412 3.132747 -1.274763 0.000002 -0.000001 0.000000 -0.000000 -0.000000 
